<svg width="295" height="78" viewBox="0 0 295 78" fill="none" xmlns="http://www.w3.org/2000/svg">
<path d="M40.0005 30H30.0002V40.0002H40.0005V30Z" fill="#FF3333"/>
<path d="M64.9946 30H54.9944V40.0002H64.9946V30Z" fill="#FF3333"/>
<path d="M14.9927 30H4.99243V40.0002H14.9927V30Z" fill="#FF3333"/>
<path d="M40.0005 5.00781H30.0002V15.008H40.0005V5.00781Z" fill="#FF3333"/>
<path d="M40.0005 55.0078H30.0002V65.008H40.0005V55.0078Z" fill="#FF3333"/>
<path d="M49.9887 20.0117H39.9885V30.0119H49.9887V20.0117Z" fill="#FF3333"/>
<path d="M59.9887 10.0078H49.9885V20.008H59.9887V10.0078Z" fill="#FF3333"/>
<path d="M69.9888 0.0117188H59.9885V10.0119H69.9888V0.0117188Z" fill="#FF3333"/>
<path d="M19.9883 30H29.9885V19.9998H19.9883V30Z" fill="#FF3333"/>
<path d="M9.98637 20H19.9866V9.99981L9.98637 9.99981L9.98637 20Z" fill="#FF3333"/>
<path d="M-2.95639e-05 10L10.0002 10L10.0002 -0.000189781L-2.95639e-05 -0.000189781L-2.95639e-05 10Z" fill="#FF3333"/>
<path d="M49.9887 40.0039H39.9885V50.0041H49.9887V40.0039Z" fill="#FF3333"/>
<path d="M59.9887 50H49.9885V60.0002H59.9887V50Z" fill="#FF3333"/>
<path d="M69.9888 60H59.9885V70.0002H69.9888V60Z" fill="#FF3333"/>
<path d="M19.9883 50H29.9885V39.9998H19.9883V50Z" fill="#FF3333"/>
<path d="M9.98637 60H19.9866V49.9998H9.98637L9.98637 60Z" fill="#FF3333"/>
<path d="M-2.95639e-05 70H10.0002L10.0002 59.9998H-2.95639e-05L-2.95639e-05 70Z" fill="#FF3333"/>
<path d="M103.542 49.2179C100.648 49.2179 98.1914 48.6139 96.1801 47.3992C94.1687 46.1911 92.6287 44.4719 91.5799 42.2549C90.5244 40.0379 90 37.4492 90 34.4888C90 31.5284 90.5111 28.8999 91.5334 26.6961C92.5557 24.4924 94.036 22.7865 95.9743 21.5718C97.9126 20.3571 100.229 19.7531 102.938 19.7531C105.075 19.7531 106.921 20.1514 108.461 20.9545C110.001 21.7577 111.182 22.9126 111.999 24.426H112.185V9H119.221V41.6177H122.713V48.6537H115.537V44.1201H113.552C112.543 45.7596 111.209 47.0142 109.536 47.897C107.87 48.7798 105.872 49.2179 103.542 49.2179ZM104.77 43.1311C107.033 43.1311 108.839 42.4939 110.173 41.2195C111.508 39.945 112.178 38.2059 112.178 36.0022V32.9821C112.178 30.7783 111.508 29.0393 110.173 27.7648C108.832 26.4904 107.033 25.8531 104.77 25.8531C102.254 25.8531 100.329 26.6165 99.0079 28.1432C97.6869 29.6698 97.0231 31.7873 97.0231 34.4954C97.0231 37.2036 97.6869 39.3211 99.0079 40.8477C100.329 42.3744 102.247 43.1377 104.77 43.1377V43.1311Z" fill="#0F0F1C"/>
<path d="M140.743 49.2187C137.816 49.2187 135.254 48.6147 133.05 47.4C130.846 46.1919 129.133 44.4794 127.905 42.2757C126.677 40.0719 126.066 37.4766 126.066 34.4896C126.066 31.5027 126.67 28.9007 127.885 26.697C129.093 24.4932 130.806 22.7873 133.01 21.5726C135.214 20.3579 137.796 19.7539 140.75 19.7539C144.401 19.7539 147.421 20.6765 149.811 22.5152C152.201 24.3538 153.714 26.916 154.345 30.1884H147.308C146.837 28.7746 146.047 27.6992 144.945 26.9757C143.843 26.2522 142.443 25.8872 140.743 25.8872C138.413 25.8872 136.555 26.6372 135.174 28.1307C133.787 29.6242 133.096 31.7416 133.096 34.483C133.096 37.2244 133.787 39.3352 135.174 40.8353C136.561 42.3288 138.413 43.0788 140.743 43.0788C144.394 43.0788 146.631 41.5057 147.448 38.3594H154.531C153.933 41.7911 152.44 44.4595 150.043 46.3579C147.654 48.2629 144.554 49.2121 140.743 49.2121V49.2187Z" fill="#0F0F1C"/>
<path d="M162.039 17.2184C160.937 17.2184 160.001 16.8334 159.231 16.0634C158.461 15.2935 158.076 14.3575 158.076 13.2557C158.076 12.1538 158.461 11.2179 159.231 10.4479C160.001 9.67796 160.937 9.29297 162.039 9.29297C163.141 9.29297 164.077 9.67796 164.847 10.4479C165.617 11.2179 166.002 12.1538 166.002 13.2557C166.002 14.3575 165.617 15.2935 164.847 16.0634C164.077 16.8334 163.141 17.2184 162.039 17.2184ZM158.547 48.6546V20.3315H165.584V48.6546H158.547Z" fill="#0F0F1C"/>
<path d="M174.173 59.9874V27.3697H170.682V20.3337H177.904V24.8673H179.889C180.865 23.2344 182.186 21.9733 183.852 21.0904C185.518 20.2076 187.536 19.7695 189.892 19.7695C192.82 19.7695 195.283 20.3736 197.281 21.5883C199.279 22.803 200.799 24.5089 201.834 26.7126C202.87 28.9163 203.394 31.5116 203.394 34.5052C203.394 37.4989 202.883 40.0942 201.861 42.2913C200.839 44.495 199.365 46.2009 197.447 47.4156C195.528 48.6303 193.211 49.2343 190.503 49.2343C188.366 49.2343 186.52 48.8228 184.98 48.0064C183.44 47.1899 182.245 46.0416 181.389 44.5614H181.203V60.0007H174.167L174.173 59.9874ZM188.618 43.1343C191.167 43.1343 193.092 42.3709 194.4 40.8443C195.707 39.3176 196.358 37.2002 196.358 34.492C196.358 31.7838 195.707 29.6664 194.4 28.1397C193.092 26.613 191.167 25.8497 188.618 25.8497C186.381 25.8497 184.589 26.4869 183.234 27.7613C181.88 29.0358 181.203 30.7749 181.203 32.9786V35.9987C181.203 38.2025 181.88 39.9415 183.234 41.216C184.589 42.4904 186.381 43.1276 188.618 43.1276V43.1343Z" fill="#0F0F1C"/>
<path d="M208.443 48.6537V9H215.48V24.5322H215.666C216.575 22.9923 217.823 21.8174 219.396 21.0143C220.969 20.2111 222.828 19.8128 224.966 19.8128C228.524 19.8128 231.345 20.8815 233.442 23.0255C235.533 25.1628 236.582 28.017 236.582 31.5682V48.6603H229.546V32.8958C229.546 30.6589 228.948 28.9596 227.754 27.798C226.559 26.6364 224.813 26.0523 222.516 26.0523C220.219 26.0523 218.473 26.6364 217.279 27.798C216.084 28.9596 215.486 30.6655 215.486 32.8958V48.6603H208.45L208.443 48.6537Z" fill="#0F0F1C"/>
<path d="M256.358 49.2199C253.305 49.2199 250.663 48.6159 248.425 47.4011C246.188 46.1931 244.469 44.4739 243.254 42.2569C242.04 40.0399 241.436 37.418 241.436 34.3979C241.436 31.3777 242.033 28.7757 243.228 26.5853C244.423 24.4015 246.122 22.7155 248.326 21.534C250.53 20.3525 253.112 19.7617 256.066 19.7617C259.02 19.7617 261.45 20.3193 263.527 21.4344C265.605 22.5496 267.211 24.1559 268.34 26.2468C269.475 28.3376 270.039 30.8201 270.039 33.681V36.137H248.226C248.479 38.5265 249.302 40.3652 250.702 41.6396C252.103 42.9141 253.968 43.5513 256.298 43.5513C258.031 43.5513 259.438 43.226 260.527 42.5822C261.615 41.9383 262.379 40.9692 262.817 39.6815H269.9C269.236 42.6685 267.723 45.0116 265.346 46.6909C262.97 48.3769 259.969 49.2132 256.351 49.2132L256.358 49.2199ZM248.379 31.3777H263.295C263.009 29.4262 262.259 27.9394 261.031 26.9172C259.803 25.895 258.15 25.3839 256.073 25.3839C253.995 25.3839 252.342 25.9016 251.021 26.9437C249.7 27.9858 248.817 29.4594 248.379 31.3844V31.3777Z" fill="#0F0F1C"/>
<path d="M277.369 48.6488V27.3616H273.877V20.3257H281.053V25.8018H283.038C283.821 23.9167 285.036 22.4829 286.675 21.5072C288.308 20.5314 290.187 20.0469 292.291 20.0469H294.654V26.0872H291.966C289.417 26.0872 287.505 26.824 286.23 28.3042C284.956 29.7844 284.319 31.7492 284.319 34.2051V48.6488H277.382H277.369Z" fill="#0F0F1C"/>
<path d="M205.68 76.9161H203.107L195.302 66.4875H195.235V76.9161H193V63.2032H195.522L203.378 73.7502H203.446V63.2032H205.68V76.9161Z" fill="#0F0F1C"/>
<path d="M218.583 76.9161H208.832V63.2032H218.583V65.2347H211.185V68.8068H218.109V70.8045H211.185V74.8845H218.583V76.9161Z" fill="#0F0F1C"/>
<path d="M226.871 76.9161H224.534V65.2347H219.845V63.2032H231.56V65.2347H226.871V76.9161Z" fill="#0F0F1C"/>
<path d="M236.477 76.9161L232.482 63.2032H234.937L237.764 73.5132H237.849L240.913 63.2032H243.063L246.313 73.5132H246.381L249.174 63.2032H251.646L247.651 76.9161H245.247L242.013 66.4028H241.946L238.881 76.9161H236.477Z" fill="#0F0F1C"/>
<path d="M259.108 77.1192C257.72 77.1192 256.501 76.8314 255.451 76.2558C254.413 75.6689 253.606 74.845 253.03 73.7841C252.455 72.7232 252.167 71.4817 252.167 70.0596C252.167 68.6262 252.455 67.3847 253.03 66.3351C253.606 65.2742 254.413 64.4559 255.451 63.8803C256.489 63.2934 257.708 63 259.108 63C260.507 63 261.726 63.2878 262.765 63.8634C263.814 64.439 264.621 65.2573 265.186 66.3182C265.761 67.3678 266.049 68.615 266.049 70.0596C266.049 71.4817 265.761 72.7232 265.186 73.7841C264.61 74.845 263.803 75.6689 262.765 76.2558C261.726 76.8314 260.507 77.1192 259.108 77.1192ZM259.108 75.0707C260.541 75.0707 261.659 74.6193 262.46 73.7164C263.273 72.8135 263.679 71.5945 263.679 70.0596C263.679 68.5134 263.278 67.2945 262.477 66.4028C261.676 65.4999 260.553 65.0485 259.108 65.0485C257.675 65.0485 256.552 65.4999 255.739 66.4028C254.938 67.2945 254.537 68.5134 254.537 70.0596C254.537 71.6058 254.938 72.8304 255.739 73.7333C256.552 74.6249 257.675 75.0707 259.108 75.0707Z" fill="#0F0F1C"/>
<path d="M268.469 76.9161V63.2032H275.274C276.696 63.2032 277.814 63.5305 278.626 64.1851C279.439 64.8397 279.845 65.7595 279.845 66.9446C279.845 67.6218 279.693 68.2143 279.388 68.7222C279.083 69.2188 278.632 69.6025 278.034 69.8734V69.9411C278.609 69.9411 279.055 70.0991 279.371 70.4151C279.687 70.7199 279.845 71.1657 279.845 71.7526V76.9161H277.509V71.4817H270.822V76.9161H268.469ZM270.822 69.484H275.088C275.867 69.484 276.465 69.2978 276.883 68.9253C277.311 68.5529 277.526 68.0281 277.526 67.3509C277.526 66.6624 277.311 66.1376 276.883 65.7764C276.465 65.404 275.867 65.2178 275.088 65.2178H270.822V69.484Z" fill="#0F0F1C"/>
<path d="M282.753 76.9161V63.2032H285.106V69.3147H285.174L291.624 63.2032H294.536L288.39 68.993L294.705 76.9161H291.861L286.68 70.4151L285.106 71.6848V76.9161H282.753Z" fill="#0F0F1C"/>
</svg>
